<svg version="1.1" xmlns="http://www.w3.org/2000/svg" viewBox="0 0 455.38245228121195 250.21429186651386" width="910.7649045624239" height="500.4285837330277">
  <!-- svg-source:excalidraw -->
  
  <defs>
    <style class="style-fonts">
      @font-face {
        font-family: "Virgil";
        src: url("https://excalidraw.com/Virgil.woff2");
      }
      @font-face {
        font-family: "Cascadia";
        src: url("https://excalidraw.com/Cascadia.woff2");
      }
      @font-face {
        font-family: "Assistant";
        src: url("https://excalidraw.com/Assistant-Regular.woff2");
      }
    </style>
    
  </defs>
  <rect x="0" y="0" width="455.38245228121195" height="250.21429186651386" fill="#ffffff"></rect><g stroke-linecap="round" transform="translate(10 118.6539191310278) rotate(0 32.41835451470081 9.698291173471617)"><path d="M0 0 C16.7 0, 33.39 0, 64.84 0 M0 0 C25.27 0, 50.53 0, 64.84 0 M64.84 0 C64.84 7.3, 64.84 14.59, 64.84 19.4 M64.84 0 C64.84 4.89, 64.84 9.77, 64.84 19.4 M64.84 19.4 C46.61 19.4, 28.38 19.4, 0 19.4 M64.84 19.4 C40.06 19.4, 15.29 19.4, 0 19.4 M0 19.4 C0 12.03, 0 4.67, 0 0 M0 19.4 C0 13.58, 0 7.76, 0 0" stroke="#343a40" stroke-width="1" fill="none"></path></g><g transform="translate(31.914669156509717 124.49045334070314) rotate(0 9.6826171875 3.9686188324536147)"><text x="9.6826171875" y="6.386995933480041" font-family="Cascadia, Segoe UI Emoji" font-size="6.614364720756029px" fill="#343a40" text-anchor="middle" style="white-space: pre;" direction="ltr" dominant-baseline="alphabetic">miner</text></g><g stroke-linecap="round"><g transform="translate(75.42867765433812 128.6943220422873) rotate(0 179.23964293611084 0)"><path d="M0 0 C142.65 0, 285.31 0, 358.48 0 M0 0 C89.98 0, 179.96 0, 358.48 0" stroke="#343a40" stroke-width="1" fill="none"></path></g><g transform="translate(75.42867765433812 128.6943220422873) rotate(0 179.23964293611084 0)"><path d="M334.99 8.55 C344.34 5.15, 353.68 1.75, 358.48 0 M334.99 8.55 C340.88 6.4, 346.78 4.26, 358.48 0" stroke="#343a40" stroke-width="1" fill="none"></path></g><g transform="translate(75.42867765433812 128.6943220422873) rotate(0 179.23964293611084 0)"><path d="M334.99 -8.55 C344.34 -5.15, 353.68 -1.75, 358.48 0 M334.99 -8.55 C340.88 -6.4, 346.78 -4.26, 358.48 0" stroke="#343a40" stroke-width="1" fill="none"></path></g></g><mask></mask><g stroke-linecap="round" transform="translate(10.18951512184276 56.48568165637201) rotate(0 32.41835451470081 9.698291173471617)"><path d="M0 0 C16.92 0, 33.83 0, 64.84 0 M0 0 C18.53 0, 37.06 0, 64.84 0 M64.84 0 C64.84 5.81, 64.84 11.61, 64.84 19.4 M64.84 0 C64.84 7.4, 64.84 14.8, 64.84 19.4 M64.84 19.4 C44.33 19.4, 23.82 19.4, 0 19.4 M64.84 19.4 C43.3 19.4, 21.76 19.4, 0 19.4 M0 19.4 C0 14.76, 0 10.13, 0 0 M0 19.4 C0 15.43, 0 11.46, 0 0" stroke="#343a40" stroke-width="1" fill="none"></path></g><g transform="translate(30.167660840852477 62.41293313584279) rotate(0 11.619140625 3.9686188324536147)"><text x="11.619140625" y="6.386995933480041" font-family="Cascadia, Segoe UI Emoji" font-size="6.614364720756029px" fill="#343a40" text-anchor="middle" style="white-space: pre;" direction="ltr" dominant-baseline="alphabetic">server</text></g><g stroke-linecap="round"><g transform="translate(95.5556109021768 119.60568167345801) rotate(0 0 -22.9837584559736)"><path d="M0 0 C0 -6.33, 0 -12.66, 0 -21.48 M0 0 C0 -7.85, 0 -15.69, 0 -21.48 M0 -21.48 C0 -29.41, 0 -37.34, 0 -45.97 M0 -21.48 C0 -29.97, 0 -38.46, 0 -45.97" stroke="#343a40" stroke-width="1" fill="none"></path></g><g transform="translate(95.5556109021768 119.60568167345801) rotate(0 0 -22.9837584559736)"><path d="M4.19 -34.46 C2.95 -37.85, 1.72 -41.24, 0 -45.97 M4.19 -34.46 C2.66 -38.66, 1.13 -42.87, 0 -45.97" stroke="#343a40" stroke-width="1" fill="none"></path></g><g transform="translate(95.5556109021768 119.60568167345801) rotate(0 0 -22.9837584559736)"><path d="M-4.19 -34.46 C-2.95 -37.85, -1.72 -41.24, 0 -45.97 M-4.19 -34.46 C-2.66 -38.66, -1.13 -42.87, 0 -45.97" stroke="#343a40" stroke-width="1" fill="none"></path></g></g><mask></mask><g stroke-linecap="round"><g transform="translate(75.03249965369469 67.26642974401315) rotate(0 179.01489720433494 0)"><path d="M0 0 C41.39 0, 82.78 0, 188.49 0 M0 0 C72.23 0, 144.45 0, 188.49 0 M188.49 0 C225.23 0, 261.98 0, 358.03 0 M188.49 0 C227.51 0, 266.53 0, 358.03 0" stroke="#343a40" stroke-width="1" fill="none"></path></g><g transform="translate(75.03249965369469 67.26642974401315) rotate(0 179.01489720433494 0)"><path d="M334.54 8.55 C339.7 6.67, 344.85 4.8, 358.03 0 M334.54 8.55 C343.54 5.27, 352.54 2, 358.03 0" stroke="#343a40" stroke-width="1" fill="none"></path></g><g transform="translate(75.03249965369469 67.26642974401315) rotate(0 179.01489720433494 0)"><path d="M334.54 -8.55 C339.7 -6.67, 344.85 -4.8, 358.03 0 M334.54 -8.55 C343.54 -5.27, 352.54 -2, 358.03 0" stroke="#343a40" stroke-width="1" fill="none"></path></g></g><mask></mask><g transform="translate(73.07721463151734 94.76430552175677) rotate(0 10.78125 2.7655105030675173)"><text x="10.78125" y="4.450743465874296" font-family="Cascadia, Segoe UI Emoji" font-size="4.609184171779206px" fill="#343a40" text-anchor="middle" style="white-space: pre;" direction="ltr" dominant-baseline="alphabetic">register</text></g><g transform="translate(114.8833559487457 95.0275471427064) rotate(0 15.64453125 2.671560423270506)"><text x="15.64453125" y="4.299542556200979" font-family="Cascadia, Segoe UI Emoji" font-size="4.452600705450853px" fill="#343a40" text-anchor="middle" style="white-space: pre;" direction="ltr" dominant-baseline="alphabetic">getChallenge</text></g><g transform="translate(203.37385970769674 93.95375636231327) rotate(0 9.46875 2.4281335351417255)"><text x="9.46875" y="3.907777408118714" font-family="Cascadia, Segoe UI Emoji" font-size="4.046889225236209px" fill="#343a40" text-anchor="middle" style="white-space: pre;" direction="ltr" dominant-baseline="alphabetic">getProof</text></g><g stroke-linecap="round" transform="translate(10.103017916547287 10) rotate(0 32.41835451470081 9.698291173471617)"><path d="M0 0 C22.96 0, 45.92 0, 64.84 0 M0 0 C22.11 0, 44.21 0, 64.84 0 M64.84 0 C64.84 5.31, 64.84 10.62, 64.84 19.4 M64.84 0 C64.84 5.65, 64.84 11.29, 64.84 19.4 M64.84 19.4 C44.28 19.4, 23.72 19.4, 0 19.4 M64.84 19.4 C40.28 19.4, 15.72 19.4, 0 19.4 M0 19.4 C0 14.6, 0 9.81, 0 0 M0 19.4 C0 13.2, 0 7, 0 0" stroke="#343a40" stroke-width="1" fill="none"></path></g><g transform="translate(36.39742647165849 15.649718137130463) rotate(0 7.74609375 3.9686188324536147)"><text x="7.74609375" y="6.386995933480041" font-family="Cascadia, Segoe UI Emoji" font-size="6.614364720756029px" fill="#343a40" text-anchor="middle" style="white-space: pre;" direction="ltr" dominant-baseline="alphabetic">poet</text></g><g stroke-linecap="round"><g transform="translate(75.46968247525683 19.390775004673458) rotate(0 179.01489720433494 0)"><path d="M0 0 C43.03 0, 86.05 0, 188.49 0 M0 0 C45.78 0, 91.56 0, 188.49 0 M188.49 0 C230.66 0, 272.83 0, 358.03 0 M188.49 0 C234.84 0, 281.19 0, 358.03 0" stroke="#343a40" stroke-width="1" fill="none"></path></g><g transform="translate(75.46968247525683 19.390775004673458) rotate(0 179.01489720433494 0)"><path d="M334.54 8.55 C339.9 6.6, 345.26 4.65, 358.03 0 M334.54 8.55 C340.24 6.47, 345.95 4.4, 358.03 0" stroke="#343a40" stroke-width="1" fill="none"></path></g><g transform="translate(75.46968247525683 19.390775004673458) rotate(0 179.01489720433494 0)"><path d="M334.54 -8.55 C339.9 -6.6, 345.26 -4.65, 358.03 0 M334.54 -8.55 C340.24 -6.47, 345.95 -4.4, 358.03 0" stroke="#343a40" stroke-width="1" fill="none"></path></g></g><mask></mask><g transform="translate(168.84036820321785 93.82819381466996) rotate(0 15.29296875 2.610649775778711)"><text x="15.29296875" y="4.201514482893864" font-family="Cascadia, Segoe UI Emoji" font-size="4.351082959631186px" fill="#343a40" text-anchor="middle" style="white-space: pre;" direction="ltr" dominant-baseline="alphabetic">registerPoet</text></g><g transform="translate(227.45886381778428 94.03999016930325) rotate(0 9.9931640625 2.2753800012362575)"><text x="9.9931640625" y="3.661939689489597" font-family="Cascadia, Segoe UI Emoji" font-size="3.792300002060424px" fill="#343a40" text-anchor="middle" style="white-space: pre;" direction="ltr" dominant-baseline="alphabetic">submitAtx</text></g><g stroke-linecap="round" transform="translate(223.55306584103027 120.4897906587527) rotate(0 10.041940492103436 7.321191188661913)"><path d="M0 0 C0 0, 0 0, 0 0 M0 0 C0 0, 0 0, 0 0 M-0.26 6.4 C1.04 4.9, 2.34 3.4, 4.99 0.36 M-0.26 6.4 C0.84 5.13, 1.94 3.87, 4.99 0.36 M0.13 12.04 C3.2 8.52, 6.26 4.99, 10.63 -0.03 M0.13 12.04 C2.66 9.13, 5.2 6.22, 10.63 -0.03 M3.15 14.67 C7.22 9.98, 11.29 5.3, 15.62 0.33 M3.15 14.67 C7.04 10.19, 10.94 5.71, 15.62 0.33 M8.14 15.03 C11.19 11.51, 14.25 8, 20.6 0.69 M8.14 15.03 C11.14 11.57, 14.15 8.12, 20.6 0.69 M13.78 14.63 C15.76 12.36, 17.73 10.09, 21 6.33 M13.78 14.63 C16.05 12.02, 18.32 9.41, 21 6.33 M18.77 14.99 C19.44 14.22, 20.12 13.44, 20.74 12.73 M18.77 14.99 C19.49 14.16, 20.21 13.33, 20.74 12.73" stroke="#fd7e14" stroke-width="0.5" fill="none"></path><path d="M0 0 C5.19 0, 10.38 0, 20.08 0 M0 0 C7.81 0, 15.62 0, 20.08 0 M20.08 0 C20.08 4.89, 20.08 9.79, 20.08 14.64 M20.08 0 C20.08 5.16, 20.08 10.33, 20.08 14.64 M20.08 14.64 C13.87 14.64, 7.66 14.64, 0 14.64 M20.08 14.64 C12.77 14.64, 5.46 14.64, 0 14.64 M0 14.64 C0 10.37, 0 6.1, 0 0 M0 14.64 C0 9.24, 0 3.84, 0 0" stroke="#f08c00" stroke-width="1" fill="none"></path></g><g stroke-linecap="round" transform="translate(206.27526989710623 180.27785298691066) rotate(0 32.41835451470081 9.698291173471631)"><path d="M0 0 C21.95 0, 43.89 0, 64.84 0 M0 0 C13.76 0, 27.51 0, 64.84 0 M64.84 0 C64.84 4.63, 64.84 9.26, 64.84 19.4 M64.84 0 C64.84 7.44, 64.84 14.88, 64.84 19.4 M64.84 19.4 C44.31 19.4, 23.78 19.4, 0 19.4 M64.84 19.4 C51.22 19.4, 37.6 19.4, 0 19.4 M0 19.4 C0 12.61, 0 5.82, 0 0 M0 19.4 C0 15.09, 0 10.79, 0 0" stroke="#343a40" stroke-width="1" fill="none"></path></g><g transform="translate(228.18993905361594 186.114387196586) rotate(0 9.6826171875 3.9686188324536147)"><text x="9.6826171875" y="6.386995933480041" font-family="Cascadia, Segoe UI Emoji" font-size="6.614364720756029px" fill="#343a40" text-anchor="middle" style="white-space: pre;" direction="ltr" dominant-baseline="alphabetic">proxy</text></g><g stroke-linecap="round" transform="translate(143.7950998501367 222.37111914197754) rotate(0 29.822073224266546 8.921586362268158)"><path d="M0 0 C16.38 0, 32.76 0, 59.64 0 M0 0 C13.79 0, 27.58 0, 59.64 0 M59.64 0 C59.64 3.9, 59.64 7.8, 59.64 17.84 M59.64 0 C59.64 6.12, 59.64 12.25, 59.64 17.84 M59.64 17.84 C37.43 17.84, 15.22 17.84, 0 17.84 M59.64 17.84 C46.79 17.84, 33.94 17.84, 0 17.84 M0 17.84 C0 13.97, 0 10.09, 0 0 M0 17.84 C0 10.74, 0 3.63, 0 0" stroke="#343a40" stroke-width="1" fill="none"></path></g><g transform="translate(162.17436160116472 227.74022418085133) rotate(0 10.6875 3.6507849701922908)"><text x="10.6875" y="5.875482061403222" font-family="Cascadia, Segoe UI Emoji" font-size="6.084641616987156px" fill="#343a40" text-anchor="middle" style="white-space: pre;" direction="ltr" dominant-baseline="alphabetic">worker</text></g><g stroke-linecap="round" transform="translate(264.1509300650671 221.11405721795745) rotate(0 29.822073224266546 8.921586362268158)"><path d="M0 0 C22.46 0, 44.92 0, 59.64 0 M0 0 C23.72 0, 47.44 0, 59.64 0 M59.64 0 C59.64 6.09, 59.64 12.17, 59.64 17.84 M59.64 0 C59.64 4.32, 59.64 8.64, 59.64 17.84 M59.64 17.84 C36.85 17.84, 14.05 17.84, 0 17.84 M59.64 17.84 C36.14 17.84, 12.64 17.84, 0 17.84 M0 17.84 C0 14.22, 0 10.6, 0 0 M0 17.84 C0 11.56, 0 5.28, 0 0" stroke="#343a40" stroke-width="1" fill="none"></path></g><g transform="translate(282.53019181609557 226.48316225683124) rotate(0 10.6875 3.6507849701922908)"><text x="10.6875" y="5.875482061403222" font-family="Cascadia, Segoe UI Emoji" font-size="6.084641616987156px" fill="#343a40" text-anchor="middle" style="white-space: pre;" direction="ltr" dominant-baseline="alphabetic">worker</text></g><g stroke-linecap="round"><g transform="translate(223.29167709755166 135.91941442819981) rotate(0 0.2621575339004494 20.10233195433493)"><path d="M0 0 C0 8.47, 0 16.93, 0 22.74 M0 0 C0 6.12, 0 12.24, 0 22.74 M0 22.74 C0.1 26.24, 0.21 29.74, 0.52 40.2 M0 22.74 C0.21 29.59, 0.41 36.44, 0.52 40.2" stroke="#1e1e1e" stroke-width="1" fill="none"></path></g><g transform="translate(223.29167709755166 135.91941442819981) rotate(0 0.2621575339004494 20.10233195433493)"><path d="M3.89 10.69 C2.44 6.71, 0.99 2.73, 0 0 M3.89 10.69 C2.84 7.81, 1.8 4.93, 0 0" stroke="#1e1e1e" stroke-width="1" fill="none"></path></g><g transform="translate(223.29167709755166 135.91941442819981) rotate(0 0.2621575339004494 20.10233195433493)"><path d="M-3.89 10.69 C-2.44 6.71, -0.99 2.73, 0 0 M-3.89 10.69 C-2.84 7.81, -1.8 4.93, 0 0" stroke="#1e1e1e" stroke-width="1" fill="none"></path></g><g transform="translate(223.29167709755166 135.91941442819981) rotate(0 0.2621575339004494 20.10233195433493)"><path d="M-2.71 32.09 C-1.5 35.11, -0.3 38.13, 0.52 40.2 M-2.71 32.09 C-1.84 34.27, -0.97 36.46, 0.52 40.2" stroke="#1e1e1e" stroke-width="1" fill="none"></path></g><g transform="translate(223.29167709755166 135.91941442819981) rotate(0 0.2621575339004494 20.10233195433493)"><path d="M3.26 31.91 C2.24 35, 1.22 38.09, 0.52 40.2 M3.26 31.91 C2.53 34.14, 1.79 36.37, 0.52 40.2" stroke="#1e1e1e" stroke-width="1" fill="none"></path></g></g><mask></mask><g transform="translate(228.05670955707637 138.78724235011256) rotate(0 13.0078125 3.3316980410578907)"><text x="13.0078125" y="5.361951534827534" font-family="Cascadia, Segoe UI Emoji" font-size="5.552830068429809px" fill="#343a40" text-anchor="middle" style="white-space: pre;" direction="ltr" dominant-baseline="alphabetic">genProof</text></g><g transform="translate(167.83521179151057 145.71716211971497) rotate(0 27.052734375 5.839166938264569)"><text x="27.052734375" y="4.6987046456347805" font-family="Cascadia, Segoe UI Emoji" font-size="4.865972448553818px" fill="#343a40" text-anchor="middle" style="white-space: pre;" direction="ltr" dominant-baseline="alphabetic">k2powtask</text><text x="27.052734375" y="10.537871583899364" font-family="Cascadia, Segoe UI Emoji" font-size="4.865972448553818px" fill="#343a40" text-anchor="middle" style="white-space: pre;" direction="ltr" dominant-baseline="alphabetic">calculated remotely</text></g><g transform="translate(76.07286598505038 224.9616906379893) rotate(0 33.84375 3.6507849701922908)"><text x="33.84375" y="5.875482061403222" font-family="Cascadia, Segoe UI Emoji" font-size="6.084641616987156px" fill="#343a40" text-anchor="middle" style="white-space: pre;" direction="ltr" dominant-baseline="alphabetic">powerful cpu worker</text></g><g transform="translate(223.51876440156616 122.42823512718036) rotate(0 9.2490234375 2.7069922869650327)"><text x="9.2490234375" y="4.356565711834353" font-family="Cascadia, Segoe UI Emoji" font-size="4.511653811608392px" fill="#343a40" text-anchor="middle" style="white-space: pre;" direction="ltr" dominant-baseline="alphabetic">reading</text></g><g transform="translate(414.39807728121195 139.662051824768) rotate(0 15.4921875 3.9686188324536147)"><text x="15.4921875" y="6.386995933480041" font-family="Cascadia, Segoe UI Emoji" font-size="6.614364720756029px" fill="#343a40" text-anchor="middle" style="white-space: pre;" direction="ltr" dominant-baseline="alphabetic">timeline</text></g><g stroke-linecap="round"><g transform="translate(113.17474979346684 75.78491591613013) rotate(0 0 22.240338117904088)"><path d="M0 0 C0 5.85, 0 11.69, 0 16.19 M0 0 C0 5.67, 0 11.33, 0 16.19 M0 16.19 C0 22.73, 0 29.27, 0 44.48 M0 16.19 C0 22.83, 0 29.48, 0 44.48" stroke="#1e1e1e" stroke-width="1" fill="none"></path></g><g transform="translate(113.17474979346684 75.78491591613013) rotate(0 0 22.240338117904088)"><path d="M-4.84 31.19 C-3.09 35.99, -1.34 40.79, 0 44.48 M-4.84 31.19 C-3.14 35.84, -1.45 40.49, 0 44.48" stroke="#1e1e1e" stroke-width="1" fill="none"></path></g><g transform="translate(113.17474979346684 75.78491591613013) rotate(0 0 22.240338117904088)"><path d="M4.84 31.19 C3.09 35.99, 1.34 40.79, 0 44.48 M4.84 31.19 C3.14 35.84, 1.45 40.49, 0 44.48" stroke="#1e1e1e" stroke-width="1" fill="none"></path></g></g><mask></mask><g stroke-linecap="round"><g transform="translate(200.1464726529589 123.69901017656963) rotate(0 0 -48.07092750652656)"><path d="M0 0 C0 -18.5, 0 -36.99, 0 -67 M0 0 C0 -14.07, 0 -28.15, 0 -67 M0 -67 C0 -72.98, 0 -78.97, 0 -96.14 M0 -67 C0 -77.74, 0 -88.49, 0 -96.14" stroke="#343a40" stroke-width="1" fill="none"></path></g><g transform="translate(200.1464726529589 123.69901017656963) rotate(0 0 -48.07092750652656)"><path d="M4.98 -82.45 C3.61 -86.23, 2.23 -90.01, 0 -96.14 M4.98 -82.45 C3.94 -85.32, 2.89 -88.2, 0 -96.14" stroke="#343a40" stroke-width="1" fill="none"></path></g><g transform="translate(200.1464726529589 123.69901017656963) rotate(0 0 -48.07092750652656)"><path d="M-4.98 -82.45 C-3.61 -86.23, -2.23 -90.01, 0 -96.14 M-4.98 -82.45 C-3.94 -85.32, -2.89 -88.2, 0 -96.14" stroke="#343a40" stroke-width="1" fill="none"></path></g></g><mask></mask><g stroke-linecap="round"><g transform="translate(222.9964615755057 30.49239699469487) rotate(0 -0.042455881721707556 43.159729861907536)"><path d="M0 0 C0 19.32, 0 38.65, 0 58.47 M0 0 C0 21.89, 0 43.78, 0 58.47 M0 58.47 C-0.02 64.57, -0.04 70.66, -0.08 86.32 M0 58.47 C-0.02 64.36, -0.04 70.24, -0.08 86.32" stroke="#1e1e1e" stroke-width="1" fill="none"></path></g><g transform="translate(222.9964615755057 30.49239699469487) rotate(0 -0.042455881721707556 43.159729861907536)"><path d="M-4.81 73.22 C-3.25 77.55, -1.69 81.88, -0.08 86.32 M-4.81 73.22 C-3.04 78.12, -1.27 83.03, -0.08 86.32" stroke="#1e1e1e" stroke-width="1" fill="none"></path></g><g transform="translate(222.9964615755057 30.49239699469487) rotate(0 -0.042455881721707556 43.159729861907536)"><path d="M4.72 73.25 C3.13 77.57, 1.54 81.89, -0.08 86.32 M4.72 73.25 C2.92 78.14, 1.12 83.03, -0.08 86.32" stroke="#1e1e1e" stroke-width="1" fill="none"></path></g></g><mask></mask><g transform="translate(141.03207425559958 182.73652936965038) rotate(0 28.4765625 5.839166938264583)"><text x="28.4765625" y="4.6987046456347805" font-family="Cascadia, Segoe UI Emoji" font-size="4.865972448553818px" fill="#343a40" text-anchor="middle" style="white-space: pre;" direction="ltr" dominant-baseline="alphabetic">k2powtask scheduling</text><text x="28.4765625" y="10.537871583899364" font-family="Cascadia, Segoe UI Emoji" font-size="4.865972448553818px" fill="#343a40" text-anchor="middle" style="white-space: pre;" direction="ltr" dominant-baseline="alphabetic">among all workers</text></g><g stroke-linecap="round"><g transform="translate(267.43485433810383 203.38029346428) rotate(0 7.603721668745152 7.6037216687451235)"><path d="M0 0 C2.83 2.83, 5.66 5.66, 8.49 8.49 M0 0 C3.14 3.14, 6.28 6.28, 8.49 8.49 M8.49 8.49 C10.91 10.91, 13.34 13.34, 15.21 15.21 M8.49 8.49 C11.05 11.05, 13.62 13.62, 15.21 15.21" stroke="#1e1e1e" stroke-width="1" fill="none"></path></g><g transform="translate(267.43485433810383 203.38029346428) rotate(0 7.603721668745152 7.6037216687451235)"><path d="M5.44 2.54 C3.63 1.69, 1.81 0.85, 0 0 M5.44 2.54 C3.43 1.6, 1.41 0.66, 0 0" stroke="#1e1e1e" stroke-width="1" fill="none"></path></g><g transform="translate(267.43485433810383 203.38029346428) rotate(0 7.603721668745152 7.6037216687451235)"><path d="M2.54 5.44 C1.69 3.63, 0.85 1.81, 0 0 M2.54 5.44 C1.6 3.43, 0.66 1.41, 0 0" stroke="#1e1e1e" stroke-width="1" fill="none"></path></g><g transform="translate(267.43485433810383 203.38029346428) rotate(0 7.603721668745152 7.6037216687451235)"><path d="M10.9 13.2 C12.34 13.87, 13.77 14.54, 15.21 15.21 M10.9 13.2 C12.49 13.94, 14.09 14.68, 15.21 15.21" stroke="#1e1e1e" stroke-width="1" fill="none"></path></g><g transform="translate(267.43485433810383 203.38029346428) rotate(0 7.603721668745152 7.6037216687451235)"><path d="M13.2 10.9 C13.87 12.34, 14.54 13.77, 15.21 15.21 M13.2 10.9 C13.94 12.49, 14.68 14.09, 15.21 15.21" stroke="#1e1e1e" stroke-width="1" fill="none"></path></g></g><mask></mask><g stroke-linecap="round"><g transform="translate(192.12645097070344 218.04650834468555) rotate(0 11.626812257026245 -6.7127431864113305)"><path d="M0 0 C4.17 -2.41, 8.34 -4.81, 11.85 -6.84 M0 0 C3.91 -2.26, 7.82 -4.52, 11.85 -6.84 M11.85 -6.84 C14.19 -8.19, 16.54 -9.55, 23.25 -13.43 M11.85 -6.84 C15.69 -9.06, 19.53 -11.28, 23.25 -13.43" stroke="#1e1e1e" stroke-width="1" fill="none"></path></g><g transform="translate(192.12645097070344 218.04650834468555) rotate(0 11.626812257026245 -6.7127431864113305)"><path d="M4.4 -5.24 C2.85 -3.4, 1.3 -1.55, 0 0 M4.4 -5.24 C2.95 -3.51, 1.49 -1.78, 0 0" stroke="#1e1e1e" stroke-width="1" fill="none"></path></g><g transform="translate(192.12645097070344 218.04650834468555) rotate(0 11.626812257026245 -6.7127431864113305)"><path d="M6.74 -1.19 C4.37 -0.77, 2 -0.35, 0 0 M6.74 -1.19 C4.51 -0.8, 2.29 -0.4, 0 0" stroke="#1e1e1e" stroke-width="1" fill="none"></path></g><g transform="translate(192.12645097070344 218.04650834468555) rotate(0 11.626812257026245 -6.7127431864113305)"><path d="M19.02 -8.38 C20.51 -10.16, 22 -11.93, 23.25 -13.43 M19.02 -8.38 C20.42 -10.05, 21.82 -11.71, 23.25 -13.43" stroke="#1e1e1e" stroke-width="1" fill="none"></path></g><g transform="translate(192.12645097070344 218.04650834468555) rotate(0 11.626812257026245 -6.7127431864113305)"><path d="M16.77 -12.28 C19.05 -12.68, 21.33 -13.09, 23.25 -13.43 M16.77 -12.28 C18.91 -12.66, 21.05 -13.04, 23.25 -13.43" stroke="#1e1e1e" stroke-width="1" fill="none"></path></g></g><mask></mask><g stroke-linecap="round"><g transform="translate(248.59872020879584 120.09645825909934) rotate(0 -0.07687904219960728 -24.522876880808354)"><path d="M0 0 C-0.06 -7.14, -0.11 -14.27, -0.15 -19.9 M0 0 C-0.04 -5.39, -0.08 -10.78, -0.15 -19.9 M-0.15 -19.9 C-0.15 -26.32, -0.15 -32.74, -0.15 -49.05 M-0.15 -19.9 C-0.15 -27.66, -0.15 -35.42, -0.15 -49.05" stroke="#343a40" stroke-width="1" fill="none"></path></g><g transform="translate(248.59872020879584 120.09645825909934) rotate(0 -0.07687904219960728 -24.522876880808354)"><path d="M4.83 -35.35 C3.04 -40.26, 1.26 -45.17, -0.15 -49.05 M4.83 -35.35 C3.48 -39.06, 2.13 -42.77, -0.15 -49.05" stroke="#343a40" stroke-width="1" fill="none"></path></g><g transform="translate(248.59872020879584 120.09645825909934) rotate(0 -0.07687904219960728 -24.522876880808354)"><path d="M-5.14 -35.35 C-3.35 -40.26, -1.56 -45.17, -0.15 -49.05 M-5.14 -35.35 C-3.79 -39.06, -2.44 -42.77, -0.15 -49.05" stroke="#343a40" stroke-width="1" fill="none"></path></g></g><mask></mask><g transform="translate(261.76367165186184 92.9156798534851) rotate(0 15.64453125 2.671560423270506)"><text x="15.64453125" y="4.299542556200979" font-family="Cascadia, Segoe UI Emoji" font-size="4.452600705450853px" fill="#343a40" text-anchor="middle" style="white-space: pre;" direction="ltr" dominant-baseline="alphabetic">getChallenge</text></g><g stroke-linecap="round"><g transform="translate(260.055065496583 73.67304862690884) rotate(0 0 22.240338117904088)"><path d="M0 0 C0 4.3, 0 8.59, 0 16.19 M0 0 C0 3.91, 0 7.81, 0 16.19 M0 16.19 C0 26.75, 0 37.3, 0 44.48 M0 16.19 C0 22.12, 0 28.06, 0 44.48" stroke="#1e1e1e" stroke-width="1" fill="none"></path></g><g transform="translate(260.055065496583 73.67304862690884) rotate(0 0 22.240338117904088)"><path d="M-4.84 31.19 C-3.55 34.72, -2.27 38.24, 0 44.48 M-4.84 31.19 C-3.67 34.4, -2.5 37.6, 0 44.48" stroke="#1e1e1e" stroke-width="1" fill="none"></path></g><g transform="translate(260.055065496583 73.67304862690884) rotate(0 0 22.240338117904088)"><path d="M4.84 31.19 C3.55 34.72, 2.27 38.24, 0 44.48 M4.84 31.19 C3.67 34.4, 2.5 37.6, 0 44.48" stroke="#1e1e1e" stroke-width="1" fill="none"></path></g></g><mask></mask></svg>